<svg width="400" height="182" viewBox="0 0 400 182" fill="none" xmlns="http://www.w3.org/2000/svg">
<path d="M114.973 72V0.499997H119.773V67.6H152.673V72H114.973ZM166.898 72V7.1H171.498V72H166.898ZM195.512 72V7.1H200.112V67.8H229.912V72H195.512ZM246.759 49.5L237.459 72H232.759L259.959 6.69999H262.659L290.059 72H284.959L275.559 49.5H246.759ZM261.059 14.1C260.059 17.1 259.159 19.6 258.359 21.6L248.359 45.6H273.959L264.059 21.7C262.525 17.9667 261.525 15.4333 261.059 14.1Z" fill="white"/>
<path d="M0.129687 181V109.5H36.6297V113.7H4.92969V140H33.9297V144.1H4.92969V181H0.129687ZM54.2031 181V116.1H58.8031V181H54.2031ZM82.8164 181V115.7H85.0164L127.616 164.7C129.15 166.433 130.55 168.167 131.816 169.9C133.15 171.567 133.85 172.433 133.916 172.5C133.783 170.9 133.716 167.767 133.716 163.1V116.1H138.316V181.4H136.116L92.7164 131.6L87.2164 124.9C87.3497 126.233 87.4164 129.367 87.4164 134.3V181H82.8164ZM165.509 158.5L156.209 181H151.509L178.709 115.7H181.409L208.809 181H203.709L194.309 158.5H165.509ZM179.809 123.1C178.809 126.1 177.909 128.6 177.109 130.6L167.109 154.6H192.709L182.809 130.7C181.275 126.967 180.275 124.433 179.809 123.1ZM221.977 181V115.7H224.177L266.777 164.7C268.31 166.433 269.71 168.167 270.977 169.9C272.31 171.567 273.01 172.433 273.077 172.5C272.943 170.9 272.877 167.767 272.877 163.1V116.1H277.477V181.4H275.277L231.877 131.6L226.377 124.9C226.51 126.233 226.577 129.367 226.577 134.3V181H221.977ZM351.969 177.8C346.969 180.6 340.002 182 331.069 182C322.202 182 314.369 178.8 307.569 172.4C300.835 166 297.469 158.067 297.469 148.6C297.469 139.067 300.402 131.1 306.269 124.7C312.202 118.3 319.835 115.1 329.169 115.1C336.702 115.1 344.069 116.267 351.269 118.6L350.069 122.4C343.135 120.267 335.969 119.2 328.569 119.2C321.169 119.2 314.935 122.033 309.869 127.7C304.869 133.3 302.369 140.2 302.369 148.4C302.369 156.533 305.269 163.467 311.069 169.2C316.935 174.933 323.702 177.8 331.369 177.8C339.035 177.8 345.402 176.733 350.469 174.6L351.969 177.8ZM368.363 181V116.1H398.663V120.1H372.963V143.7H396.163V147.6H372.963V176.8H399.663V181H368.363Z" fill="#FFC9C9"/>
</svg>
