<svg width="313" height="37" viewBox="0 0 313 37" fill="none" xmlns="http://www.w3.org/2000/svg">
<path d="M0.442773 36V0.249998H2.84277V33.8H19.2928V36H0.442773ZM26.4053 36V3.55H28.7053V36H26.4053ZM40.7119 36V3.55H43.0119V33.9H57.9119V36H40.7119ZM66.3354 24.75L61.6854 36H59.3354L72.9354 3.35H74.2854L87.9854 36H85.4354L80.7354 24.75H66.3354ZM73.4854 7.05C72.9854 8.55 72.5354 9.8 72.1354 10.8L67.1354 22.8H79.9354L74.9854 10.85C74.2187 8.98333 73.7187 7.71667 73.4854 7.05Z" fill="white"/>
<path d="M113.187 36V0.249998H131.437V2.35H115.587V15.5H130.087V17.55H115.587V36H113.187ZM140.224 36V3.55H142.524V36H140.224ZM154.53 36V3.35H155.63L176.93 27.85C177.697 28.7167 178.397 29.5833 179.03 30.45C179.697 31.2833 180.047 31.7167 180.08 31.75C180.014 30.95 179.98 29.3833 179.98 27.05V3.55H182.28V36.2H181.18L159.48 11.3L156.73 7.95C156.797 8.61667 156.83 10.1833 156.83 12.65V36H154.53ZM195.876 24.75L191.226 36H188.876L202.476 3.35H203.826L217.526 36H214.976L210.276 24.75H195.876ZM203.026 7.05C202.526 8.55 202.076 9.8 201.676 10.8L196.676 22.8H209.476L204.526 10.85C203.76 8.98333 203.26 7.71667 203.026 7.05ZM224.11 36V3.35H225.21L246.51 27.85C247.277 28.7167 247.977 29.5833 248.61 30.45C249.277 31.2833 249.627 31.7167 249.66 31.75C249.594 30.95 249.56 29.3833 249.56 27.05V3.55H251.86V36.2H250.76L229.06 11.3L226.31 7.95C226.377 8.61667 226.41 10.1833 226.41 12.65V36H224.11ZM289.106 34.4C286.606 35.8 283.123 36.5 278.656 36.5C274.223 36.5 270.306 34.9 266.906 31.7C263.54 28.5 261.856 24.5333 261.856 19.8C261.856 15.0333 263.323 11.05 266.256 7.85C269.223 4.65 273.04 3.05 277.706 3.05C281.473 3.05 285.156 3.63333 288.756 4.8L288.156 6.7C284.69 5.63333 281.106 5.1 277.406 5.1C273.706 5.1 270.59 6.51666 268.056 9.35C265.556 12.15 264.306 15.6 264.306 19.7C264.306 23.7667 265.756 27.2333 268.656 30.1C271.59 32.9667 274.973 34.4 278.806 34.4C282.64 34.4 285.823 33.8667 288.356 32.8L289.106 34.4ZM297.304 36V3.55H312.454V5.55H299.604V17.35H311.204V19.3H299.604V33.9H312.954V36H297.304Z" fill="#FFC9C9"/>
</svg>
