<svg width="12" height="18" viewBox="0 0 16 25" fill="none" xmlns="http://www.w3.org/2000/svg">
<path d="M8.70711 0.292893C8.31658 -0.097631 7.68342 -0.0976309 7.29289 0.292893L0.928933 6.65686C0.538409 7.04738 0.538409 7.68055 0.928934 8.07107C1.31946 8.46159 1.95262 8.46159 2.34315 8.07107L8 2.41421L13.6569 8.07107C14.0474 8.46159 14.6805 8.46159 15.0711 8.07107C15.4616 7.68054 15.4616 7.04738 15.0711 6.65685L8.70711 0.292893ZM9 2L9 1L7 1L7 2L9 2Z" fill="#333745"/>
<path d="M7.29289 24.7071C7.68342 25.0976 8.31658 25.0976 8.70711 24.7071L15.0711 18.3431C15.4616 17.9526 15.4616 17.3195 15.0711 16.9289C14.6805 16.5384 14.0474 16.5384 13.6569 16.9289L8 22.5858L2.34315 16.9289C1.95262 16.5384 1.31946 16.5384 0.928932 16.9289C0.538408 17.3195 0.538408 17.9526 0.928932 18.3431L7.29289 24.7071ZM7 23V24H9V23H7Z" fill="#333745"/>
</svg>
