<svg width="30" height="38" viewBox="0 0 30 38" fill="none" xmlns="http://www.w3.org/2000/svg">
<path d="M15.2646 10.35C16.9146 10.35 18.248 10.8167 19.2646 11.75C20.2813 12.6833 20.7896 13.9333 20.7896 15.5C20.7896 17.25 20.248 18.55 19.1646 19.4C18.0813 20.2333 16.6146 20.65 14.7646 20.65L14.6896 23.025H12.7146L12.6146 19.075H13.3396C14.9896 19.075 16.2813 18.825 17.2146 18.325C18.148 17.825 18.6146 16.8833 18.6146 15.5C18.6146 14.5 18.3146 13.7083 17.7146 13.125C17.1146 12.5417 16.3063 12.25 15.2896 12.25C14.2563 12.25 13.4396 12.5333 12.8396 13.1C12.2563 13.65 11.9646 14.4083 11.9646 15.375H9.81465C9.81465 14.375 10.0396 13.5 10.4896 12.75C10.9396 11.9833 11.573 11.3917 12.3896 10.975C13.223 10.5583 14.1813 10.35 15.2646 10.35ZM13.6896 28.15C13.2563 28.15 12.8896 28 12.5896 27.7C12.2896 27.4 12.1396 27.0333 12.1396 26.6C12.1396 26.1667 12.2896 25.8 12.5896 25.5C12.8896 25.2 13.2563 25.05 13.6896 25.05C14.1063 25.05 14.4563 25.2 14.7396 25.5C15.0396 25.8 15.1896 26.1667 15.1896 26.6C15.1896 27.0333 15.0396 27.4 14.7396 27.7C14.4563 28 14.1063 28.15 13.6896 28.15Z" fill="white"/>
<circle cx="15" cy="19" r="14" stroke="white" stroke-width="2"/>
</svg>
